<?xml version="1.0" encoding="UTF-8" standalone="no"?><!DOCTYPE svg PUBLIC "-//W3C//DTD SVG 1.1//EN" "http://www.w3.org/Graphics/SVG/1.1/DTD/svg11.dtd"><svg width="100%" height="100%" viewBox="0 0 1874 414" version="1.1" xmlns="http://www.w3.org/2000/svg" xmlns:xlink="http://www.w3.org/1999/xlink" xml:space="preserve" xmlns:serif="http://www.serif.com/" style="fill-rule:evenodd;clip-rule:evenodd;stroke-linejoin:round;stroke-miterlimit:2;"><path d="M90.478,413.216c-29.423,-0 -51.859,-8.368 -67.307,-25.103c-15.447,-16.734 -23.171,-40.733 -23.171,-71.996l0,-294.607l60.687,0l-0,299.02c-0,13.241 2.666,22.804 7.999,28.689c5.333,5.885 12.965,8.827 22.896,8.827c9.93,-0 17.562,-2.942 22.895,-8.827c5.333,-5.885 8,-15.448 8,-28.689l-0,-299.02l58.48,0l-0,294.607c-0,31.263 -7.724,55.262 -23.172,71.996c-15.447,16.735 -37.883,25.103 -67.307,25.103Z" style="fill:#fa0;fill-rule:nonzero;"/><rect x="223.989" y="21.51" width="60.687" height="386.188" style="fill:#fa0;fill-rule:nonzero;"/><path d="M377.361,76.68l-63.445,0l-0,-55.17l187.577,0l0,55.17l-63.445,0l-0,331.019l-60.687,-0l0,-331.019Z" style="fill:#fa0;fill-rule:nonzero;"/><path d="M609.626,413.216c-29.424,-0 -51.676,-8.368 -66.756,-25.103c-15.079,-16.734 -22.619,-40.733 -22.619,-71.996l-0,-22.068l57.376,0l0,26.481c0,25.011 10.483,37.516 31.447,37.516c10.298,-0 18.114,-3.034 23.447,-9.103c5.333,-6.069 8,-15.907 8,-29.516c-0,-16.183 -3.678,-30.435 -11.034,-42.756c-7.356,-12.322 -20.965,-27.126 -40.826,-44.412c-25.01,-22.068 -42.48,-42.021 -52.411,-59.859c-9.931,-17.839 -14.896,-37.975 -14.896,-60.411c0,-30.527 7.724,-54.158 23.171,-70.893c15.448,-16.735 37.884,-25.103 67.308,-25.103c29.056,0 51.032,8.368 65.927,25.103c14.896,16.735 22.344,40.733 22.344,71.996l0,15.999l-57.376,0l-0,-19.861c-0,-13.24 -2.575,-22.895 -7.724,-28.964c-5.149,-6.068 -12.689,-9.103 -22.62,-9.103c-20.229,0 -30.343,12.321 -30.343,36.964c-0,13.976 3.77,27.033 11.31,39.17c7.54,12.138 21.24,26.85 41.101,44.136c25.378,22.068 42.849,42.113 52.411,60.135c9.563,18.022 14.345,39.171 14.345,63.446c-0,31.63 -7.816,55.905 -23.448,72.824c-15.631,16.918 -38.343,25.378 -68.134,25.378Z" style="fill:#fa0;fill-rule:nonzero;"/><path d="M735.965,21.51l86.616,0l38.619,276.401l1.103,-0l38.619,-276.401l86.617,0l-0,386.189l-57.377,-0l0,-292.4l-1.103,-0l-44.136,292.4l-50.756,-0l-44.136,-292.4l-1.104,-0l0,292.4l-52.962,-0l-0,-386.189Z" style="fill:#fa0;fill-rule:nonzero;"/><path d="M1032.78,21.51l60.687,0l-0,386.189l-60.687,-0l-0,-386.189Zm120.27,388.395c-11.034,0 -20.413,-0.735 -28.137,-2.206l0,-55.17c5.885,1.471 12.505,2.207 19.861,2.207c12.138,-0 21.149,-3.035 27.034,-9.103c5.884,-6.069 8.827,-15.356 8.827,-27.861l-0,-296.262l60.686,0l0,294.607c0,31.631 -7.264,55.17 -21.792,70.617c-14.528,15.448 -36.687,23.171 -66.479,23.171Z" style="fill:#fa0;fill-rule:nonzero;"/><rect x="1032.78" y="0" width="60.625" height="10.104" style="fill:#ff6300;fill-rule:nonzero;"/><rect x="223.946" y="0" width="60.625" height="10.104" style="fill:#ff6300;fill-rule:nonzero;"/><rect x="1180.69" y="0" width="60.625" height="10.104" style="fill:#ff6300;fill-rule:nonzero;"/><path d="M1332.35,76.68l-63.446,0l0,-55.17l187.578,0l-0,55.17l-63.446,0l0,331.019l-60.686,-0l-0,-331.019Z" style="fill:#fa0;fill-rule:nonzero;"/><path d="M1485.72,21.51l165.51,0l-0,55.17l-104.823,0l0,102.064l83.307,0l-0,55.17l-83.307,-0l0,118.615l104.823,-0l-0,55.17l-165.51,-0l0,-386.189Z" style="fill:#fa0;fill-rule:nonzero;"/><path d="M1685.99,21.51l89.926,0c31.263,0 54.067,7.264 68.411,21.792c14.344,14.529 21.516,36.872 21.516,67.032l0,23.723c0,40.09 -13.241,65.468 -39.722,76.134l-0,1.103c14.712,4.414 25.102,13.425 31.171,27.034c6.068,13.608 9.103,31.814 9.103,54.618l-0,67.858c-0,11.034 0.368,19.953 1.103,26.758c0.736,6.804 2.575,13.516 5.517,20.137l-61.79,-0c-2.207,-6.253 -3.678,-12.138 -4.414,-17.655c-0.735,-5.517 -1.103,-15.447 -1.103,-29.791l0,-70.618c0,-17.654 -2.85,-29.975 -8.551,-36.963c-5.701,-6.988 -15.54,-10.483 -29.516,-10.483l-20.965,0l0,165.51l-60.686,-0l-0,-386.189Zm82.754,165.51c12.138,-0 21.241,-3.127 27.309,-9.379c6.069,-6.253 9.103,-16.735 9.103,-31.447l0,-29.792c0,-13.976 -2.482,-24.09 -7.448,-30.343c-4.965,-6.253 -12.781,-9.379 -23.447,-9.379l-27.585,0l0,110.34l22.068,-0Z" style="fill:#fa0;fill-rule:nonzero;"/></svg>