<?xml version="1.0" encoding="UTF-8" standalone="no"?>
<!DOCTYPE svg PUBLIC "-//W3C//DTD SVG 1.1//EN" "http://www.w3.org/Graphics/SVG/1.1/DTD/svg11.dtd">
<svg width="100%" height="100%" viewBox="0 0 945 134" version="1.1" xmlns="http://www.w3.org/2000/svg" xmlns:xlink="http://www.w3.org/1999/xlink" xml:space="preserve" xmlns:serif="http://www.serif.com/" style="fill-rule:evenodd;clip-rule:evenodd;stroke-linejoin:round;stroke-miterlimit:2;">
    <g transform="matrix(1,0,0,1,-101.554,-533.289)">
        <g transform="matrix(7.67579,0,0,7.67579,-676.206,-2112.05)">
            <path d="M105.098,361.861C103.872,361.861 102.936,361.512 102.292,360.814C101.648,360.117 101.326,359.116 101.326,357.813L101.326,345.531L103.856,345.531L103.856,357.997C103.856,358.549 103.968,358.947 104.19,359.193C104.412,359.438 104.73,359.561 105.144,359.561C105.558,359.561 105.877,359.438 106.099,359.193C106.321,358.947 106.432,358.549 106.432,357.997L106.432,345.531L108.87,345.531L108.87,357.813C108.87,359.116 108.548,360.117 107.904,360.814C107.26,361.512 106.325,361.861 105.098,361.861Z" style="fill:rgb(255,170,0);fill-rule:nonzero;"/>
            <rect x="110.664" y="345.531" width="2.53" height="16.1" style="fill:rgb(255,170,0);"/>
            <path d="M117.058,347.831L114.413,347.831L114.413,345.531L122.233,345.531L122.233,347.831L119.588,347.831L119.588,361.631L117.058,361.631L117.058,347.831Z" style="fill:rgb(255,170,0);fill-rule:nonzero;"/>
            <path d="M126.741,361.861C125.515,361.861 124.587,361.512 123.958,360.814C123.33,360.117 123.015,359.116 123.015,357.813L123.015,356.893L125.407,356.893L125.407,357.997C125.407,359.039 125.844,359.561 126.718,359.561C127.148,359.561 127.474,359.434 127.696,359.181C127.918,358.928 128.029,358.518 128.029,357.951C128.029,357.276 127.876,356.682 127.569,356.168C127.263,355.655 126.695,355.037 125.867,354.317C124.825,353.397 124.096,352.565 123.682,351.821C123.268,351.078 123.061,350.238 123.061,349.303C123.061,348.03 123.383,347.045 124.027,346.347C124.671,345.65 125.607,345.301 126.833,345.301C128.045,345.301 128.961,345.65 129.582,346.347C130.203,347.045 130.513,348.045 130.513,349.349L130.513,350.016L128.121,350.016L128.121,349.188C128.121,348.636 128.014,348.233 127.799,347.98C127.585,347.727 127.27,347.601 126.856,347.601C126.013,347.601 125.591,348.114 125.591,349.142C125.591,349.724 125.749,350.269 126.063,350.775C126.377,351.281 126.948,351.894 127.776,352.615C128.834,353.535 129.563,354.37 129.961,355.122C130.36,355.873 130.559,356.755 130.559,357.767C130.559,359.085 130.234,360.097 129.582,360.803C128.93,361.508 127.983,361.861 126.741,361.861Z" style="fill:rgb(255,170,0);fill-rule:nonzero;"/>
            <path d="M132.008,345.531L135.619,345.531L137.229,357.054L137.275,357.054L138.885,345.531L142.496,345.531L142.496,361.631L140.104,361.631L140.104,349.441L140.058,349.441L138.218,361.631L136.102,361.631L134.262,349.441L134.216,349.441L134.216,361.631L132.008,361.631L132.008,345.531Z" style="fill:rgb(255,170,0);fill-rule:nonzero;"/>
            <path d="M144.382,345.531L146.912,345.531L146.912,361.631L144.382,361.631L144.382,345.531ZM149.396,361.723C148.936,361.723 148.545,361.692 148.223,361.631L148.223,359.331C148.469,359.392 148.745,359.423 149.051,359.423C149.557,359.423 149.933,359.296 150.178,359.043C150.424,358.79 150.546,358.403 150.546,357.882L150.546,345.531L153.076,345.531L153.076,357.813C153.076,359.131 152.774,360.113 152.168,360.757C151.562,361.401 150.638,361.723 149.396,361.723Z" style="fill:rgb(255,170,0);fill-rule:nonzero;"/>
            <g transform="matrix(0.998983,0,0,0.0261638,0.146863,335.594)">
                <rect x="144.382" y="345.531" width="2.53" height="16.1" style="fill:rgb(255,30,0);"/>
            </g>
            <g transform="matrix(0.998983,0,0,0.0261638,-33.5729,335.594)">
                <rect x="144.382" y="345.531" width="2.53" height="16.1" style="fill:rgb(255,30,0);"/>
            </g>
            <g transform="matrix(0.998983,0,0,0.0261638,6.31344,335.594)">
                <rect x="144.382" y="345.531" width="2.53" height="16.1" style="fill:rgb(255,30,0);"/>
            </g>
            <path d="M156.871,347.831L154.226,347.831L154.226,345.531L162.046,345.531L162.046,347.831L159.401,347.831L159.401,361.631L156.871,361.631L156.871,347.831Z" style="fill:rgb(255,170,0);fill-rule:nonzero;"/>
            <path d="M163.265,345.531L170.165,345.531L170.165,347.831L165.795,347.831L165.795,352.086L169.268,352.086L169.268,354.386L165.795,354.386L165.795,359.331L170.165,359.331L170.165,361.631L163.265,361.631L163.265,345.531Z" style="fill:rgb(255,170,0);fill-rule:nonzero;"/>
            <path d="M171.614,345.531L175.363,345.531C176.667,345.531 177.617,345.834 178.215,346.439C178.813,347.045 179.112,347.976 179.112,349.234L179.112,350.223C179.112,351.894 178.56,352.952 177.456,353.397L177.456,353.443C178.07,353.627 178.503,354.002 178.756,354.57C179.009,355.137 179.135,355.896 179.135,356.847L179.135,359.676C179.135,360.136 179.151,360.508 179.181,360.791C179.212,361.075 179.289,361.355 179.411,361.631L176.835,361.631C176.743,361.37 176.682,361.125 176.651,360.895C176.621,360.665 176.605,360.251 176.605,359.653L176.605,356.709C176.605,355.973 176.487,355.459 176.249,355.168C176.011,354.876 175.601,354.731 175.018,354.731L174.144,354.731L174.144,361.631L171.614,361.631L171.614,345.531ZM175.064,352.431C175.57,352.431 175.95,352.3 176.203,352.04C176.456,351.779 176.582,351.342 176.582,350.729L176.582,349.487C176.582,348.904 176.479,348.482 176.272,348.222C176.065,347.961 175.739,347.831 175.294,347.831L174.144,347.831L174.144,352.431L175.064,352.431Z" style="fill:rgb(255,170,0);fill-rule:nonzero;"/>
        </g>
        <g transform="matrix(0.959252,0,0,0.950353,45.8992,31.5365)">
            <path d="M773.802,537.657C791.232,537.657 804.182,543.045 812.653,553.821C821.124,564.596 825.36,580.037 825.36,600.143C825.36,613.266 823.291,624.734 819.153,634.546C815.014,644.358 809.002,651.973 801.115,657.391C793.228,662.809 783.685,665.518 772.488,665.518C771.027,665.518 769.08,665.458 766.646,665.337C764.211,665.217 761.704,665.127 759.124,665.067C756.543,665.006 754.182,664.976 752.04,664.976C748.632,664.976 745.273,665.006 741.962,665.067C738.651,665.127 735.974,665.277 733.929,665.518L733.929,661.906C737.24,661.665 739.747,661.184 741.451,660.461C743.155,659.739 744.299,658.294 744.883,656.127C745.467,653.96 745.76,650.709 745.76,646.375L745.76,556.8C745.76,552.346 745.467,549.065 744.883,546.958C744.299,544.851 743.155,543.406 741.451,542.624C739.747,541.841 737.24,541.39 733.929,541.269L733.929,537.657C735.974,537.778 738.651,537.928 741.962,538.109C745.273,538.29 748.535,538.32 751.748,538.199C755.156,538.079 759.002,537.958 763.286,537.838C767.571,537.718 771.076,537.657 773.802,537.657ZM770.151,540.908C765.672,540.908 762.751,541.932 761.387,543.978C760.024,546.025 759.343,550.179 759.343,556.439L759.343,646.736C759.343,652.997 760.049,657.15 761.461,659.197C762.872,661.244 765.818,662.267 770.297,662.267C780.91,662.267 789.138,659.889 794.98,655.134C800.823,650.378 804.912,643.425 807.249,634.275C809.586,625.125 810.754,613.989 810.754,600.865C810.754,587.381 809.464,576.214 806.884,567.365C804.304,558.516 800.068,551.894 794.177,547.5C788.286,543.105 780.277,540.908 770.151,540.908Z" style="fill:rgb(129,128,127);fill-rule:nonzero;"/>
            <path d="M873.412,569.984C879.644,569.984 885.243,571.669 890.209,575.04C895.175,578.412 899.143,583.709 902.112,590.933C905.082,598.156 906.567,607.547 906.567,619.105C906.567,630.663 905.082,640.024 902.112,647.188C899.143,654.351 895.175,659.619 890.209,662.99C885.243,666.361 879.644,668.046 873.412,668.046C867.278,668.046 861.704,666.361 856.689,662.99C851.674,659.619 847.682,654.351 844.712,647.188C841.743,640.024 840.258,630.663 840.258,619.105C840.258,607.547 841.743,598.156 844.712,590.933C847.682,583.709 851.674,578.412 856.689,575.04C861.704,571.669 867.278,569.984 873.412,569.984ZM873.412,573.596C867.862,573.596 863.31,577.147 859.756,584.251C856.202,591.354 854.425,602.972 854.425,619.105C854.425,635.238 856.202,646.827 859.756,653.87C863.31,660.913 867.862,664.434 873.412,664.434C878.963,664.434 883.515,660.913 887.069,653.87C890.623,646.827 892.4,635.238 892.4,619.105C892.4,602.972 890.623,591.354 887.069,584.251C883.515,577.147 878.963,573.596 873.412,573.596Z" style="fill:rgb(129,128,127);fill-rule:nonzero;"/>
            <path d="M954.181,569.984C957.297,569.984 960.316,570.465 963.237,571.429C966.158,572.392 968.787,573.836 971.124,575.763C973.363,577.569 975.067,579.646 976.236,581.993C977.404,584.341 977.988,586.899 977.988,589.669C977.988,592.919 977.258,595.417 975.798,597.163C974.337,598.909 972.487,599.782 970.247,599.782C968.105,599.782 966.231,598.999 964.624,597.434C963.018,595.869 962.214,593.642 962.214,590.752C962.214,587.983 962.823,585.756 964.04,584.07C965.257,582.385 966.693,581.301 968.349,580.819C967.375,578.652 965.647,576.846 963.164,575.402C960.681,573.957 958.027,573.234 955.204,573.234C952.769,573.234 950.335,573.957 947.901,575.402C945.467,576.846 943.227,579.224 941.182,582.535C939.138,585.846 937.482,590.361 936.216,596.08C934.951,601.798 934.318,608.932 934.318,617.48C934.318,628.075 935.291,636.503 937.239,642.763C939.186,649.024 941.742,653.508 944.907,656.217C948.071,658.926 951.552,660.281 955.35,660.281C957.881,660.281 960.462,659.679 963.091,658.475C965.72,657.271 968.203,655.314 970.54,652.606C972.876,649.897 974.873,646.255 976.528,641.68L979.303,642.944C978.329,646.796 976.723,650.679 974.483,654.592C972.244,658.505 969.322,661.726 965.72,664.254C962.117,666.782 957.687,668.046 952.429,668.046C946.392,668.046 940.939,666.12 936.07,662.267C931.202,658.415 927.331,652.907 924.459,645.743C921.587,638.579 920.15,630.061 920.15,620.189C920.15,610.316 921.587,601.618 924.459,594.093C927.331,586.568 931.348,580.669 936.509,576.395C941.669,572.121 947.56,569.984 954.181,569.984Z" style="fill:rgb(129,128,127);fill-rule:nonzero;"/>
            <path d="M1014.8,569.984C1018.69,569.984 1022,570.766 1024.73,572.332C1027.45,573.897 1029.45,575.341 1030.71,576.666C1033.93,579.916 1035.88,577.749 1036.56,570.164L1039.92,570.164C1039.72,573.535 1039.58,577.539 1039.48,582.174C1039.38,586.809 1039.33,593.04 1039.33,600.865L1035.97,600.865C1035.39,596.411 1034.39,592.076 1032.98,587.863C1031.57,583.649 1029.5,580.187 1026.77,577.478C1024.05,574.77 1020.49,573.415 1016.11,573.415C1012.7,573.415 1009.85,574.589 1007.57,576.937C1005.28,579.284 1004.13,582.746 1004.13,587.321C1004.13,590.933 1005.01,594.033 1006.76,596.621C1008.51,599.21 1010.8,601.618 1013.63,603.845C1016.45,606.072 1019.52,608.511 1022.83,611.159C1026.53,614.049 1029.89,616.998 1032.9,620.008C1035.92,623.018 1038.33,626.329 1040.13,629.941C1041.94,633.553 1042.84,637.827 1042.84,642.763C1042.84,648.301 1041.67,652.937 1039.33,656.669C1037,660.401 1033.95,663.23 1030.2,665.157C1026.45,667.083 1022.34,668.046 1017.86,668.046C1015.72,668.046 1013.7,667.836 1011.8,667.414C1009.9,666.993 1008.08,666.361 1006.32,665.518C1005.35,664.916 1004.35,664.194 1003.33,663.351C1002.31,662.508 1001.31,661.605 1000.34,660.642C999.361,659.679 998.485,659.709 997.706,660.732C996.927,661.756 996.343,663.772 995.953,666.782L992.594,666.782C992.789,662.929 992.935,658.234 993.032,652.696C993.13,647.158 993.178,639.813 993.178,630.663L996.538,630.663C997.219,637.406 998.193,643.305 999.459,648.362C1000.72,653.418 1002.72,657.361 1005.45,660.19C1008.17,663.02 1011.97,664.434 1016.84,664.434C1018.79,664.434 1020.76,663.893 1022.75,662.809C1024.75,661.726 1026.43,659.92 1027.79,657.391C1029.16,654.863 1029.84,651.492 1029.84,647.278C1029.84,641.981 1028.28,637.646 1025.16,634.275C1022.05,630.904 1018.11,627.352 1013.33,623.62C1009.83,620.851 1006.54,618.082 1003.48,615.313C1000.41,612.544 997.925,609.413 996.026,605.922C994.128,602.431 993.178,598.217 993.178,593.28C993.178,587.863 994.176,583.438 996.172,580.007C998.169,576.575 1000.82,574.047 1004.13,572.422C1007.44,570.796 1011,569.984 1014.8,569.984Z" style="fill:rgb(129,128,127);fill-rule:nonzero;"/>
        </g>
        <g transform="matrix(0.552886,0,0,0.916575,336.383,41.4138)">
            <rect x="707.612" y="540.172" width="5.426" height="139.095" style="fill:rgb(255,30,0);"/>
        </g>
    </g>
</svg>
